/* XPM */
static char *_4c9d258efe7439eb1ea623b29d759d7oOQezBYMAb22SXdb[] = {
/* columns rows colors chars-per-pixel */
"32 32 8 1 ",
"  c #1F324D",
". c #5A5875",
"X c #E17B50",
"o c #8294AF",
"O c #A84111",
"+ c #211D1D",
"@ c #70162B",
"# c #FAFA82",
/* pixels */
"      .......XXXXXXooooooo...   ",
" ....oooooXXXXXXXXXXXXoooooo... ",
" ...ooooXXXXXXXXXXXXXXXXoooo.oo.",
"...ooooXXXXXOOOOOOOOXXXXXooo ooo",
".o.oooXXXXOOOOOOOOOOOOXXXXoo ooo",
"oooooXXXOOOOOOOOOOOOOOOOXXX.oooo",
"ooooXXXOOOOOO++++++OOOOOOXXXoooo",
"oo.XXXOOOOO++++++++++OOOOOXXXooo",
"oo.XXOOOOO+++OOOOOO+++OOOOOXXoo.",
".oXXOOOOO++O@OOOOOOOO++OOOOOXX..",
"..XOOOOO++OO@OOOOOOOOO++OOOOOX. ",
"..XOOOO++OOO@OOOOOOOOOO++OOOOXo ",
".XOOOO++OOOOOOOOOOO@OOOO++OOOOX ",
".XOOOO++OOOOOOOOOOO@OOOO++OOOOXo",
" XOOO++OOOOOOOOOOOO@OOOOO++OOOXo",
" XOOO++OOOOOOOOOOOO@OOOOO++OOOXo",
" XOOO++OOOOO@OOOOOO@OOOOO++OOOX.",
" OOOO++OOOOO@OOOOOOOOOOOO++OOOO ",
" OOOO++OOOOO@OOOOOOOO##OO++OOOO ",
" OOOO++OOOOO@OOOOOOO####O++OOOO.",
".OOOO++OOOOO@OOOOOOO####O++OOOOo",
".OOOO++OOOOOOOOOOOOO@##@O++OOOOo",
".OOOO++OOOOOOOOOOOOOO@@OO++OOOO.",
".OOOO++OOOOOOOOOOOOOOOOOO++OOOO.",
" OOOO++OOOOOOOOOOOO@OOOOO++OOOO.",
" OOOO++OOOOO@OOOOOO@OOOOO++OOOO ",
" OOOO++OOOOO@OOOOOO@OOOOO++OOOO ",
".OOOO++OOOOO@OOOOOO@OOOOO++OOOO ",
".OOOO++OOOOO@OOOOOOOOOOOO++OOOO.",
".OOOO++OOOOO@OOOOOOOOOOOO++OOOO.",
" OOOO++OOOOO@OOOOOO@OOOOO++OOOO.",
" OOOO++.ooooo...ooooo. .o++OOOO."
};
