/* XPM */
static char *_8baa647490b4c36cf4fbe910505c3cfte84t2MMWB5ZfQjU[] = {
/* columns rows colors chars-per-pixel */
"32 32 6 1 ",
"  c #1F324D",
". c #5A5875",
"X c #E17B50",
"o c #8294AF",
"O c #A84111",
"+ c #0C1317",
/* pixels */
"      .......XXXXXXooooooo...   ",
" ....oooooXXXXXXXXXXXXoooooo... ",
" ...ooooXXXXXXXXXXXXXXXXoooo.oo.",
"...ooooXXXXXOOOOOOOOXXXXXooo ooo",
".o.oooXXXXOOOOOOOOOOOOXXXXoo ooo",
"oooooXXXOOOOOOOOOOOOOOOOXXX.oooo",
"ooooXXXOOOOOO++++++OOOOOOXXXoooo",
"oo.XXXOOOOO++++++++++OOOOOXXXooo",
"oo.XXOOOOO++++++++++++OOOOOXXoo.",
".oXXOOOOO++++++++++++++OOOOOXX..",
"..XOOOOO++++++++++++++++OOOOOX. ",
"..XOOOO++++++++++++++++++OOOOXo ",
".XOOOO++++++++++++++++++++OOOOX ",
".XOOOO++++++++++++++++++++OOOOXo",
" XOOO++++++++++++++++++++++OOOXo",
" XOOO++++++++++++++++++++++OOOXo",
" XOOO++++++++++++++++++++++OOOX.",
" OOOO++++++++++++++++++++++OOOO ",
" OOOO++++++++++++++++++++++OOOO ",
" OOOO++++++++++++++++++++++OOOO.",
".OOOO++++++++++++++++++++++OOOOo",
".OOOO++++++++++++++++++++++OOOOo",
".OOOO++++++++++++++++++++++OOOO.",
".OOOO++++++++++++++++++++++OOOO.",
" OOOO++++++++++++++++++++++OOOO.",
" OOOO++++++++++++++++++++++OOOO ",
" OOOO++++++++++++++++++++++OOOO ",
".OOOO++++++++++++++++++++++OOOO ",
".OOOO++++++++++++++++++++++OOOO.",
".OOOO++++++++++++++++++++++OOOO.",
" OOOO++++++++++++++++++++++OOOO.",
" OOOO++.ooooo...ooooo. .o++OOOO."
};
