/* XPM */
static char *a35065f8f6b54282f8b58bfa19083a64KbjFJwr1vyQZMs2b[] = {
/* columns rows colors chars-per-pixel */
"32 32 22 1 ",
"  c #BCCBD5",
". c #AABACE",
"X c #4C63E0",
"o c #B6C5D2",
"O c #B1C1D1",
"+ c #B8C7D3",
"@ c #B5C4D2",
"# c #AEBED0",
"$ c #A84111",
"% c #748F93",
"& c #3494CB",
"* c #1E1B80",
"= c #FCA89D",
"- c black",
"; c #DEF9FC",
": c #12274D",
"> c #ADBDCF",
", c #B0C0D1",
"< c #FF4D00",
"1 c #FAFA82",
"2 c #453625",
"3 c #B9C8D4",
/* pixels */
"                ................",
"               XXXXXXX..........",
"  oOOOOOOOOOO+XXXXXX@@@@@@@@@#..",
"  O..........XXXXXXX       $$O..",
"  O.......%%%%%%%%%X      $$$$..",
"  O......&*********%%     $$$O..",
"  O......***=====****&    $$$$..",
"  O.......**-==--=***&    $$$O..",
"  O........*======*       $$$O..",
"  O......;.;;==;;;*;       $ O..",
"  O&&&..;;;;;;;;;;;;;      $ O..",
"  &;::&..;;;;;;;;;;;       $ O..",
"  &:::&..X;;;;;;;;;;;X   = $=O..",
"  &=::&@;;;;;;;;;;;;;;XOXX===>..",
"  ==:=& X;;;;;;;;;;XX*XXX*==*X..",
"   ====XXX;;X;;;XX;;*XXXX*==*X..",
"...X***XXX*XXX;XXXX*XXXXX**$*X  ",
"...X***XXXX**XXX***XXXXXXX*$*X  ",
"..,X**XXXXXXXXXXXXXXXOXXXXX$X+  ",
"..@ XXXXX XXXXXXXXXXX.XXXXX$.@  ",
"..@   XX  <XXXXXXXXX<..XXX.$.@  ",
"..@       X<<<<<<11<X...X..$.@  ",
"..@       XXXXXXX11XX......$.@  ",
"..@      XXXXXXX<X<XXX.....$.@  ",
"..@      XXXXXXX<X<XXX.....$.@  ",
"..@      XXXXXXX<X<XXX.....$.@  ",
"..@      XXXXXXXXXXXXX.....$.@  ",
"..@      XXXXXXXXXXXXX.....$.@  ",
"..@        2XXXXXXXXXX.....$.@  ",
"..#OOOOOOO2222.XXXXXX@@@@@@@@3  ",
"................ 222            ",
"................                "
};
