/* XPM */
static char *_bcd3ae526db44eac54664153b683b08eZHc99Y2V8t0k8rm[] = {
/* columns rows colors chars-per-pixel */
"32 32 10 1 ",
"  c #BCCBD5",
". c #AABACE",
"X c #B6C5D2",
"o c #B1C1D1",
"O c #B8C7D3",
"+ c #B0C0D1",
"@ c #B5C4D2",
"# c #AEBED0",
"$ c #B9C8D4",
"% c #ADBDCF",
/* pixels */
"                ................",
"                ................",
"  XooooooooooO  ..+@@@@@@@@@@#..",
"  o..........@  ..@          o..",
"  o..........@  ..@          o..",
"  o..........@  ..@          o..",
"  o..........@  ..@          o..",
"  o..........@  ..@          o..",
"  o..........@  ..@          o..",
"  o..........@  ..@          o..",
"  o..........@  ..@          o..",
"  o..........@  ..@          o..",
"  o..........@  ..@          o..",
"  O@@@@@@@@@@$  ..#oooooooooo%..",
"                ................",
"                ................",
"................                ",
"................                ",
"..+@@@@@@@@@@#..  XooooooooooO  ",
"..@          o..  o..........@  ",
"..@          o..  o..........@  ",
"..@          o..  o..........@  ",
"..@          o..  o..........@  ",
"..@          o..  o..........@  ",
"..@          o..  o..........@  ",
"..@          o..  o..........@  ",
"..@          o..  o..........@  ",
"..@          o..  o..........@  ",
"..@          o..  o..........@  ",
"..#oooooooooo%..  O@@@@@@@@@@$  ",
"................                ",
"................                "
};
