/* XPM */
static char *_30eb8e56f104a39eec89eab7c76d9809JLfASNKVhjbmrGY[] = {
/* columns rows colors chars-per-pixel */
"32 32 18 1 ",
"  c #BCCBD5",
". c #AABACE",
"X c #B6C5D2",
"o c #B1C1D1",
"O c #B8C7D3",
"+ c #B0C0D1",
"@ c #B5C4D2",
"# c #AEBED0",
"$ c #E17B50",
"% c #00EDFF",
"& c #76428A",
"* c #0C1317",
"= c #B9C8D4",
"- c #ADBDCF",
"; c #3494CB",
": c #14605D",
"> c #DEF9FC",
", c #07BB79",
/* pixels */
"                ................",
"                ................",
"  XooooooooooO  ..+@@@@@@@@@@#..",
"  o..........@  ..@          o..",
"  o..........@  ..@          o..",
"  o..........@  ..@          o..",
"  o..........@  ..@          o..",
"  o..........@  ..@          o..",
"  o..........@$$$.@          o..",
"  o..........%$$$%@          o..",
"  o..........%%$%%@          o..",
"  o..........@&*&.@          o..",
"  o..........@&*&.@          o..",
"  O@@@@@@@@@@=&*&.#oooooooooo-..",
"             %;*;&..............",
"            %*****%.............",
"...........%*:::::*%            ",
"..........%::>>:::::%           ",
"..+@@@@@@@%:,>>:::,:%ooooooooO  ",
"..@       %::,,,,,::;........@  ",
"..@       %:::::::::;........@  ",
"..@        %:::::::;.........@  ",
"..@         %%%%;;;..........@  ",
"..@          o..  o..........@  ",
"..@          o..  o..........@  ",
"..@          o..  o..........@  ",
"..@          o..  o..........@  ",
"..@          o..  o..........@  ",
"..@          o..  o..........@  ",
"..#oooooooooo-..  O@@@@@@@@@@=  ",
"................                ",
"................                "
};
